{"title":"Adventures of a Teenage Dragonslayer  DvDRip H264 Feel-Free","uid":5878135,"size":712343767,"categoryP":"video","categoryS":"movies","magnet":"?xt=urn:btih:7ce097b178c1a83249901fad91e9338d345e40a8&amp;dn=+Adventures+of+a+Teenage+Dragonslayer++DvDRip+H264+Feel-Free&amp;tr=udp%3A%2F%2Ftracker.openbittorrent.com%3A80&amp;tr=udp%3A%2F%2Fopen.demonii.com%3A1337&amp;tr=udp%3A%2F%2Ftracker.coppersurfer.tk%3A6969&amp;tr=udp%3A%2F%2Fexodus.desync.com%3A6969","seeders":0,"leechers":1,"uploader":"neon","files":-1,"time":1286731565,"description":"Genre:Adventure | Comedy | Family | Fantasy\nLanguage: English\n &lt;a href=&quot; http://www.imdb.com/title/tt1373149/&quot; rel=&quot;nofollow&quot; target=&quot;_NEW&quot;&gt; http://www.imdb.com/title/tt1373149/&lt;/a&gt;\nSource:DVD\n\nComplete name :Adventures of a Teenage Dragonslayer 2010 DvDRip H264 Feel-Free\nFormat : MPEG-4\nFormat profile : Base Media\nCodec ID : isom\nFile size : 678 MiB\nDuration : 1h 28mn\nOverall bit rate : 1 072 Kbps\nVideo #2\nCodec ID : avc1\nCodec ID/Info : Advanced Video Coding\nDuration : 1h 28mn\nBit rate mode : Variable\nBit rate : 907 Kbps\nWidth : 720 pixels\nHeight : 384 pixels\nDisplay aspect ratio : 1.875\nFrame rate mode : Constant\nFrame rate : 25.000 fps\nResolution : 24 bits\nColorimetry : 4:2:0\nScan type : Progressive\nBits/(Pixel*Frame) : 0.131\nStream size : 574 MiB (85%)\nAudio #1\nID : 1\nFormat : AAC\nFormat/Info : Advanced Audio Codec\nFormat version : Version 4\nFormat profile : LC\nFormat settings, SBR : No\nCodec ID : 40\nDuration : 1h 28mn\nBit rate mode : Constant\nBit rate : 160 Kbps\nChannel(s) : 2 channels\nChannel positions : L R\nSampling rate : 48.0 KHz\nResolution : 16 bits\nStream size : 101 MiB (15%)\n\nPlot:\nArthur unwittingly discovers the secret to stopping an evil dragon who threatens to destroy all civilization","torrent":{"xt":"urn:btih:7ce097b178c1a83249901fad91e9338d345e40a8","amp;dn":"+Adventures+of+a+Teenage+Dragonslayer++DvDRip+H264+Feel-Free","amp;tr":["udp%3A%2F%2Ftracker.openbittorrent.com%3A80","udp%3A%2F%2Fopen.demonii.com%3A1337","udp%3A%2F%2Ftracker.coppersurfer.tk%3A6969","udp%3A%2F%2Fexodus.desync.com%3A6969"],"infoHash":"7ce097b178c1a83249901fad91e9338d345e40a8","infoHashBuffer":{"type":"Buffer","data":[124,224,151,177,120,193,168,50,73,144,31,173,145,233,51,141,52,94,64,168]},"announce":[],"urlList":[]}}